<?xml version="1.0" encoding="UTF-8" standalone="no"?>
<!-- Created with Inkscape (http://www.inkscape.org/) -->

<svg
   version="1.1"
   id="svg1"
   width="128"
   height="128"
   viewBox="0 0 128 128"
   sodipodi:docname="booking.svg"
   inkscape:version="1.3.2 (091e20e, 2023-11-25, custom)"
   xmlns:inkscape="http://www.inkscape.org/namespaces/inkscape"
   xmlns:sodipodi="http://sodipodi.sourceforge.net/DTD/sodipodi-0.dtd"
   xmlns="http://www.w3.org/2000/svg"
   xmlns:svg="http://www.w3.org/2000/svg">
  <defs
     id="defs1" />
  <sodipodi:namedview
     id="namedview1"
     pagecolor="#ffffff"
     bordercolor="#000000"
     borderopacity="0.25"
     inkscape:showpageshadow="2"
     inkscape:pageopacity="0.0"
     inkscape:pagecheckerboard="0"
     inkscape:deskcolor="#d1d1d1"
     inkscape:zoom="4.0382426"
     inkscape:cx="54.60296"
     inkscape:cy="74.908822"
     inkscape:window-width="1920"
     inkscape:window-height="1001"
     inkscape:window-x="-9"
     inkscape:window-y="-9"
     inkscape:window-maximized="1"
     inkscape:current-layer="g1" />
  <g
     inkscape:groupmode="layer"
     inkscape:label="Image"
     id="g1">
    <path
       style="fill:#ffffff;fill-opacity:1;stroke-width:1.1429"
       d="M 7.9968885,126.00173 C 0.0441225,122.02897 -3.5e-6,121.7121 -3.5e-6,68.573332 c 0,-42.868133 0.192198,-47.814618 1.998335,-51.430002 2.982472,-5.970081 8.0488935,-7.9963235 19.9993325,-7.9984455 9.826389,-0.0017 10.000555,-0.05012 10.000555,-2.777363 0,-2.714055 2.623077,-6.367524 4.571683,-6.367524 1.948607,0 4.571682,3.653469 4.571682,6.367524 v 2.775587 h 22.858412 22.858417 v -2.775587 c 0,-2.714055 2.62307,-6.367524 4.57168,-6.367524 1.94861,0 4.57168,3.653469 4.57168,6.367524 0,2.727249 0.17417,2.775618 10.000557,2.777363 11.95043,0.0022 17.01686,2.0283645 19.99933,7.9984455 C 127.8078,20.758714 128,25.705199 128,68.573332 128,121.7121 127.9559,122.02897 120.0031,126.00173 116.37067,127.81627 111.22175,128 63.999997,128 16.778242,128 11.629332,127.81627 7.9968885,126.00173 Z M 117.48868,117.48898 c 1.00736,-1.00734 1.3715,-10.71776 1.3715,-36.572448 V 45.715552 H 63.999996 9.1398095 v 35.20098 c 0,25.854688 0.364151,35.565108 1.3715035,36.572448 1.974247,1.97418 105.003127,1.97418 106.977367,0 z M 44.939031,87.633762 c -4.603021,-4.60289 -8.369129,-8.9377 -8.369129,-9.63292 0,-1.58529 3.201878,-4.85596 4.753828,-4.85596 0.638986,0 4.039559,2.76538 7.556829,6.14529 l 6.395034,6.14528 13.791297,-11.95441 c 16.027523,-13.89278 18.237193,-15.23786 20.808503,-12.66662 3.48406,3.48395 2.62352,4.42556 -26.152869,28.61663 -4.299479,3.614391 -8.401588,6.57161 -9.115799,6.57161 -0.714212,0 -5.064674,-3.766 -9.667694,-8.3689 z M 118.86018,28.800798 c 0,-4.520762 -0.5737,-8.345332 -1.3715,-9.143113 -1.97424,-1.974191 -105.003119,-1.974191 -106.977366,0 -0.7978035,0.797781 -1.3715045,4.622351 -1.3715045,9.143113 v 7.771645 H 63.999997 118.86018 Z"
       id="path1" />
  </g>
</svg>
